2025-11-02 23:54:56,544 - INFO - === RTSP Hourly Recorder ===
2025-11-02 23:54:56,544 - INFO - Fuente: rtsp://admin:9H)p5x84@192.168.1.64:554/Streaming/Channels/101
2025-11-02 23:54:56,544 - INFO - Salida: /home/drbash/Documentos/github-repos/ipcam-utilities/recordings
2025-11-02 23:54:56,544 - INFO - Hora de inicio: 2025-11-02 23:54:56
2025-11-02 23:54:56,545 - INFO - Audio: OFF
2025-11-02 23:54:56,545 - INFO - Conectando a cámara…
2025-11-02 23:54:56,545 - INFO - Iniciando FFmpeg con segmentación horaria alineada al reloj…
2025-11-02 23:54:56,545 - INFO - CMD: ffmpeg -hide_banner -loglevel info -rtsp_transport tcp -use_wallclock_as_timestamps 1 -i rtsp://admin:9H)p5x84@192.168.1.64:554/Streaming/Channels/101 -map 0:v:0 -c:v copy -an -f segment -segment_time 3600 -segment_atclocktime 1 -reset_timestamps 1 -segment_format_options movflags=+faststart -strftime 1 recordings/2025-11-02/Sunday_%Y-%m-%d_%H-%M-%S.mp4
2025-11-02 23:54:58,268 - INFO - FFmpeg: Input #0, rtsp, from 'rtsp://admin:9H)p5x84@192.168.1.64:554/Streaming/Channels/101':
2025-11-02 23:54:58,268 - INFO - Conectado.
2025-11-02 23:54:58,268 - INFO - FFmpeg:   Metadata:
2025-11-02 23:54:58,268 - INFO - FFmpeg:     title           : Media Presentation
2025-11-02 23:54:58,269 - INFO - FFmpeg:   Duration: N/A, start: 1762138496.816375, bitrate: N/A
2025-11-02 23:54:58,269 - INFO - FFmpeg:   Stream #0:0: Video: h264 (High), yuvj420p(pc, bt709, progressive), 2560x1440, 15 fps, 30 tbr, 90k tbn
2025-11-02 23:54:58,269 - INFO - FFmpeg:   Stream #0:1: Audio: pcm_mulaw, 8000 Hz, mono, s16, 64 kb/s
2025-11-02 23:54:58,285 - INFO - FFmpeg: Stream mapping:
2025-11-02 23:54:58,285 - INFO - FFmpeg:   Stream #0:0 -> #0:0 (copy)
2025-11-02 23:54:58,285 - INFO - FFmpeg: [segment @ 0x555fa7228680] Opening 'recordings/2025-11-02/Sunday_2025-11-02_23-54-58.mp4' for writing
2025-11-02 23:54:58,285 - INFO - Iniciando grabación del día 2025-11-02…
2025-11-02 23:54:58,285 - INFO - Grabando…
2025-11-02 23:54:58,285 - INFO - FFmpeg: Output #0, segment, to 'recordings/2025-11-02/Sunday_%Y-%m-%d_%H-%M-%S.mp4':
2025-11-02 23:54:58,286 - INFO - FFmpeg:   Metadata:
2025-11-02 23:54:58,286 - INFO - FFmpeg:     title           : Media Presentation
2025-11-02 23:54:58,286 - INFO - FFmpeg:     encoder         : Lavf61.7.100
2025-11-02 23:54:58,286 - INFO - FFmpeg:   Stream #0:0: Video: h264 (High), yuvj420p(pc, bt709, progressive), 2560x1440, q=2-31, 15 fps, 30 tbr, 90k tbn
2025-11-02 23:54:58,286 - INFO - FFmpeg: Press [q] to stop, [?] for help
2025-11-02 23:54:58,286 - INFO - FFmpeg: [segment @ 0x555fa7228680] Timestamps are unset in a packet for stream 0. This is deprecated and will stop working in the future. Fix your code to set the timestamps properly
2025-11-02 23:55:57,468 - INFO - Deteniendo…
2025-11-02 23:55:57,809 - INFO - FFmpeg: frame=   29 fps=0.0 q=-1.0 size=N/A time=00:00:01.91 bitrate=N/A speed=3.82x    frame=   37 fps= 37 q=-1.0 size=N/A time=00:00:02.46 bitrate=N/A speed=2.46x    frame=   44 fps= 29 q=-1.0 size=N/A time=00:00:02.91 bitrate=N/A speed=1.94x    frame=   48 fps= 24 q=-1.0 size=N/A time=00:00:03.29 bitrate=N/A speed=1.65x    frame=   57 fps= 23 q=-1.0 size=N/A time=00:00:03.85 bitrate=N/A speed=1.54x    frame=   67 fps= 22 q=-1.0 size=N/A time=00:00:04.50 bitrate=N/A speed= 1.5x    frame=   67 fps= 19 q=-1.0 size=N/A time=00:00:04.50 bitrate=N/A speed=1.29x    frame=   82 fps= 20 q=-1.0 size=N/A time=00:00:05.46 bitrate=N/A speed=1.37x    frame=   89 fps= 20 q=-1.0 size=N/A time=00:00:05.90 bitrate=N/A speed=1.31x    frame=   97 fps= 19 q=-1.0 size=N/A time=00:00:06.46 bitrate=N/A speed=1.29x    frame=  104 fps= 19 q=-1.0 size=N/A time=00:00:06.91 bitrate=N/A speed=1.26x    frame=  112 fps= 19 q=-1.0 size=N/A time=00:00:07.45 bitrate=N/A speed=1.24x    frame=  119 fps= 18 q=-1.0 size=N/A time=00:00:07.91 bitrate=N/A speed=1.22x    frame=  127 fps= 18 q=-1.0 size=N/A time=00:00:08.46 bitrate=N/A speed=1.21x    frame=  134 fps= 18 q=-1.0 size=N/A time=00:00:08.92 bitrate=N/A speed=1.19x    frame=  142 fps= 18 q=-1.0 size=N/A time=00:00:09.47 bitrate=N/A speed=1.18x    frame=  149 fps= 18 q=-1.0 size=N/A time=00:00:09.91 bitrate=N/A speed=1.17x    frame=  157 fps= 17 q=-1.0 size=N/A time=00:00:10.46 bitrate=N/A speed=1.16x    frame=  164 fps= 17 q=-1.0 size=N/A time=00:00:10.92 bitrate=N/A speed=1.15x    frame=  172 fps= 17 q=-1.0 size=N/A time=00:00:11.46 bitrate=N/A speed=1.15x    frame=  179 fps= 17 q=-1.0 size=N/A time=00:00:11.91 bitrate=N/A speed=1.13x    frame=  187 fps= 17 q=-1.0 size=N/A time=00:00:12.47 bitrate=N/A speed=1.13x    frame=  194 fps= 17 q=-1.0 size=N/A time=00:00:12.91 bitrate=N/A speed=1.12x    frame=  202 fps= 17 q=-1.0 size=N/A time=00:00:13.46 bitrate=N/A speed=1.12x    frame=  209 fps= 17 q=-1.0 size=N/A time=00:00:13.91 bitrate=N/A speed=1.11x    frame=  217 fps= 17 q=-1.0 size=N/A time=00:00:14.46 bitrate=N/A speed=1.11x    frame=  224 fps= 17 q=-1.0 size=N/A time=00:00:14.90 bitrate=N/A speed= 1.1x    frame=  232 fps= 17 q=-1.0 size=N/A time=00:00:15.46 bitrate=N/A speed= 1.1x    frame=  239 fps= 16 q=-1.0 size=N/A time=00:00:15.91 bitrate=N/A speed= 1.1x    frame=  247 fps= 16 q=-1.0 size=N/A time=00:00:16.46 bitrate=N/A speed= 1.1x    frame=  254 fps= 16 q=-1.0 size=N/A time=00:00:16.91 bitrate=N/A speed=1.09x    frame=  262 fps= 16 q=-1.0 size=N/A time=00:00:17.46 bitrate=N/A speed=1.09x    frame=  269 fps= 16 q=-1.0 size=N/A time=00:00:17.91 bitrate=N/A speed=1.09x    frame=  272 fps= 16 q=-1.0 size=N/A time=00:00:18.11 bitrate=N/A speed=1.06x    frame=  272 fps= 16 q=-1.0 size=N/A time=00:00:18.11 bitrate=N/A speed=1.03x    frame=  276 fps= 15 q=-1.0 size=N/A time=00:00:19.05 bitrate=N/A speed=1.06x    frame=  285 fps= 15 q=-1.0 size=N/A time=00:00:19.66 bitrate=N/A speed=1.06x    frame=  301 fps= 16 q=-1.0 size=N/A time=00:00:20.25 bitrate=N/A speed=1.07x    frame=  314 fps= 16 q=-1.0 size=N/A time=00:00:20.98 bitrate=N/A speed=1.08x    frame=  322 fps= 16 q=-1.0 size=N/A time=00:00:21.47 bitrate=N/A speed=1.07x    frame=  329 fps= 16 q=-1.0 size=N/A time=00:00:21.91 bitrate=N/A speed=1.07x    frame=  337 fps= 16 q=-1.0 size=N/A time=00:00:22.46 bitrate=N/A speed=1.07x    frame=  344 fps= 16 q=-1.0 size=N/A time=00:00:22.91 bitrate=N/A speed=1.07x    frame=  352 fps= 16 q=-1.0 size=N/A time=00:00:23.46 bitrate=N/A speed=1.07x    frame=  359 fps= 16 q=-1.0 size=N/A time=00:00:23.91 bitrate=N/A speed=1.06x    frame=  367 fps= 16 q=-1.0 size=N/A time=00:00:24.47 bitrate=N/A speed=1.06x    frame=  374 fps= 16 q=-1.0 size=N/A time=00:00:24.91 bitrate=N/A speed=1.06x    frame=  382 fps= 16 q=-1.0 size=N/A time=00:00:25.46 bitrate=N/A speed=1.06x    frame=  389 fps= 16 q=-1.0 size=N/A time=00:00:25.90 bitrate=N/A speed=1.06x    frame=  397 fps= 16 q=-1.0 size=N/A time=00:00:26.41 bitrate=N/A speed=1.06x    frame=  405 fps= 16 q=-1.0 size=N/A time=00:00:26.96 bitrate=N/A speed=1.06x    frame=  412 fps= 16 q=-1.0 size=N/A time=00:00:27.41 bitrate=N/A speed=1.05x    frame=  420 fps= 16 q=-1.0 size=N/A time=00:00:27.97 bitrate=N/A speed=1.06x    frame=  427 fps= 16 q=-1.0 size=N/A time=00:00:28.41 bitrate=N/A speed=1.05x    frame=  435 fps= 16 q=-1.0 size=N/A time=00:00:28.96 bitrate=N/A speed=1.05x    frame=  442 fps= 16 q=-1.0 size=N/A time=00:00:29.41 bitrate=N/A speed=1.05x    frame=  450 fps= 16 q=-1.0 size=N/A time=00:00:29.95 bitrate=N/A speed=1.05x    frame=  457 fps= 16 q=-1.0 size=N/A time=00:00:30.41 bitrate=N/A speed=1.05x    frame=  465 fps= 16 q=-1.0 size=N/A time=00:00:30.96 bitrate=N/A speed=1.05x    frame=  472 fps= 16 q=-1.0 size=N/A time=00:00:31.41 bitrate=N/A speed=1.05x    frame=  480 fps= 16 q=-1.0 size=N/A time=00:00:31.96 bitrate=N/A speed=1.05x    frame=  487 fps= 16 q=-1.0 size=N/A time=00:00:32.41 bitrate=N/A speed=1.05x    frame=  495 fps= 16 q=-1.0 size=N/A time=00:00:32.96 bitrate=N/A speed=1.05x    frame=  497 fps= 16 q=-1.0 size=N/A time=00:00:33.11 bitrate=N/A speed=1.03x    frame=  509 fps= 16 q=-1.0 size=N/A time=00:00:33.92 bitrate=N/A speed=1.04x    frame=  513 fps= 16 q=-1.0 size=N/A time=00:00:34.16 bitrate=N/A speed=1.04x    frame=  519 fps= 15 q=-1.0 size=N/A time=00:00:34.57 bitrate=N/A speed=1.03x    frame=  519 fps= 15 q=-1.0 size=N/A time=00:00:34.57 bitrate=N/A speed=1.02x    frame=  540 fps= 16 q=-1.0 size=N/A time=00:00:35.96 bitrate=N/A speed=1.04x    frame=  547 fps= 16 q=-1.0 size=N/A time=00:00:36.41 bitrate=N/A speed=1.04x    frame=  555 fps= 16 q=-1.0 size=N/A time=00:00:36.96 bitrate=N/A speed=1.04x    frame=  562 fps= 16 q=-1.0 size=N/A time=00:00:37.41 bitrate=N/A speed=1.04x    frame=  570 fps= 16 q=-1.0 size=N/A time=00:00:37.97 bitrate=N/A speed=1.04x    frame=  577 fps= 16 q=-1.0 size=N/A time=00:00:38.41 bitrate=N/A speed=1.04x    frame=  585 fps= 16 q=-1.0 size=N/A time=00:00:38.98 bitrate=N/A speed=1.04x    frame=  592 fps= 16 q=-1.0 size=N/A time=00:00:39.40 bitrate=N/A speed=1.04x    frame=  600 fps= 16 q=-1.0 size=N/A time=00:00:39.96 bitrate=N/A speed=1.04x    frame=  607 fps= 16 q=-1.0 size=N/A time=00:00:40.40 bitrate=N/A speed=1.04x    frame=  615 fps= 16 q=-1.0 size=N/A time=00:00:40.96 bitrate=N/A speed=1.04x    frame=  622 fps= 16 q=-1.0 size=N/A time=00:00:41.41 bitrate=N/A speed=1.03x    frame=  630 fps= 16 q=-1.0 size=N/A time=00:00:41.96 bitrate=N/A speed=1.04x    frame=  637 fps= 16 q=-1.0 size=N/A time=00:00:42.41 bitrate=N/A speed=1.03x    frame=  645 fps= 16 q=-1.0 size=N/A time=00:00:42.96 bitrate=N/A speed=1.03x    frame=  652 fps= 16 q=-1.0 size=N/A time=00:00:43.41 bitrate=N/A speed=1.03x    frame=  660 fps= 16 q=-1.0 size=N/A time=00:00:43.96 bitrate=N/A speed=1.03x    frame=  667 fps= 16 q=-1.0 size=N/A time=00:00:44.41 bitrate=N/A speed=1.03x    frame=  675 fps= 16 q=-1.0 size=N/A time=00:00:44.97 bitrate=N/A speed=1.03x    frame=  682 fps= 15 q=-1.0 size=N/A time=00:00:45.41 bitrate=N/A speed=1.03x    frame=  690 fps= 15 q=-1.0 size=N/A time=00:00:45.96 bitrate=N/A speed=1.03x    frame=  697 fps= 15 q=-1.0 size=N/A time=00:00:46.41 bitrate=N/A speed=1.03x    frame=  705 fps= 15 q=-1.0 size=N/A time=00:00:46.96 bitrate=N/A speed=1.03x    frame=  712 fps= 15 q=-1.0 size=N/A time=00:00:47.41 bitrate=N/A speed=1.03x    frame=  720 fps= 15 q=-1.0 size=N/A time=00:00:47.96 bitrate=N/A speed=1.03x    frame=  727 fps= 15 q=-1.0 size=N/A time=00:00:48.41 bitrate=N/A speed=1.03x    frame=  735 fps= 15 q=-1.0 size=N/A time=00:00:48.96 bitrate=N/A speed=1.03x    frame=  742 fps= 15 q=-1.0 size=N/A time=00:00:49.41 bitrate=N/A speed=1.03x    frame=  749 fps= 15 q=-1.0 size=N/A time=00:00:49.86 bitrate=N/A speed=1.03x    frame=  756 fps= 15 q=-1.0 size=N/A time=00:00:50.36 bitrate=N/A speed=1.03x    frame=  765 fps= 15 q=-1.0 size=N/A time=00:00:50.96 bitrate=N/A speed=1.03x    frame=  772 fps= 15 q=-1.0 size=N/A time=00:00:51.41 bitrate=N/A speed=1.03x    frame=  780 fps= 15 q=-1.0 size=N/A time=00:00:51.97 bitrate=N/A speed=1.03x    frame=  786 fps= 15 q=-1.0 size=N/A time=00:00:52.36 bitrate=N/A speed=1.03x    frame=  795 fps= 15 q=-1.0 size=N/A time=00:00:53.03 bitrate=N/A speed=1.03x    frame=  802 fps= 15 q=-1.0 size=N/A time=00:00:53.41 bitrate=N/A speed=1.03x    frame=  810 fps= 15 q=-1.0 size=N/A time=00:00:53.96 bitrate=N/A speed=1.03x    frame=  817 fps= 15 q=-1.0 size=N/A time=00:00:54.41 bitrate=N/A speed=1.03x    frame=  825 fps= 15 q=-1.0 size=N/A time=00:00:54.96 bitrate=N/A speed=1.03x    frame=  832 fps= 15 q=-1.0 size=N/A time=00:00:55.41 bitrate=N/A speed=1.03x    frame=  840 fps= 15 q=-1.0 size=N/A time=00:00:55.96 bitrate=N/A speed=1.03x    frame=  847 fps= 15 q=-1.0 size=N/A time=00:00:56.41 bitrate=N/A speed=1.03x    frame=  855 fps= 15 q=-1.0 size=N/A time=00:00:56.96 bitrate=N/A speed=1.03x    frame=  862 fps= 15 q=-1.0 size=N/A time=00:00:57.41 bitrate=N/A speed=1.02x    frame=  870 fps= 15 q=-1.0 size=N/A time=00:00:57.96 bitrate=N/A speed=1.03x    frame=  877 fps= 15 q=-1.0 size=N/A time=00:00:58.40 bitrate=N/A speed=1.02x    frame=  885 fps= 15 q=-1.0 size=N/A time=00:00:58.96 bitrate=N/A speed=1.03x    frame=  892 fps= 15 q=-1.0 size=N/A time=00:00:59.40 bitrate=N/A speed=1.02x    frame=  900 fps= 15 q=-1.0 size=N/A time=00:00:59.92 bitrate=N/A speed=1.02x    frame=  908 fps= 15 q=-1.0 size=N/A time=00:01:00.45 bitrate=N/A speed=1.02x    [mp4 @ 0x555fa7229500] Starting second pass: moving the moov atom to the beginning of the file
2025-11-02 23:55:57,867 - INFO - Grabación finalizada.
2025-11-02 23:55:57,867 - INFO - === Grabación finalizada ===
